<svg xmlns="http://www.w3.org/2000/svg" xmlns:xlink="http://www.w3.org/1999/xlink" version="1.1" enable-background="new 0 0 100 100" xml:space="preserve" width="100" height="125"><rect id="backgroundrect" width="100%" height="100%" x="0" y="0" fill="none" stroke="none"/><g class="currentLayer"><title>Layer 1</title><g id="svg_1" class="selected" fill="#ffffff" fill-opacity="1"><path fill="#ffffff" d="M0.037,22H0.001v3.06H0l0.001,0.763v0.764h0.001v0.001l0.765-0.001h2.175v7.703h12.683v-7.72   c6.515-0.004,12.308-0.004,13.32,0.014v2.288v13.611v0.763V84.13h-1.321v9.231h0.556v1.418h-5.624v1.525h22.821v-1.525h-5.625   v-1.418h0.558V84.13h-1.322V43.408c0.468-1.079,3.002-7.354,2.126-14.631l-0.757-0.67h-1.37v-1.479h38.66v1.475h0.925v15.197h0.011   l-0.014,0.023l3.331,4.282c-0.044,0.388-0.58,1.19-0.983,1.787c-0.648,0.971-1.266,1.887-1.266,2.737   c0,1.106,0.622,2.076,1.542,2.587l-12.259,8.815v18.061h27.473V63.533l-12.254-8.816c0.918-0.51,1.541-1.479,1.541-2.586v-0.765   h-1.527v0.765c0,0.793-0.671,1.442-1.496,1.442c-0.822,0-1.494-0.649-1.494-1.442c0-0.385,0.583-1.252,1.009-1.885   c0.625-0.931,1.211-1.809,1.245-2.617l3.349-4.305l-0.012-0.023h0.004V28.104h0.921v-1.475h11.652L100,25.472l-5.271-8.752H72.22   l-0.337-0.117C68.32,15.36,37.972,4.785,34.388,3.78 M34.035,3.695 M94.881,66.378h-2.288v1.527h2.288v1.541h-2.288v1.525h2.288   v1.525h-2.288v1.527h2.288v1.526h-2.288v1.525h2.288v1.526h-2.288v1.464h-1.525v-1.464h-3.053v1.464h-1.525v-1.464h-3.052v1.464   h-1.526v-1.464h-3.053v1.464H77.33v-1.464h-3.053v1.464h-1.526v-1.464h-2.289v-1.526h2.289v-1.525h-2.289v-1.526h2.289v-1.527   h-2.289v-1.525h2.289v-1.525h-2.289v-1.541h2.289v-1.527h-2.289v-2.063l12.21-8.783l12.209,8.783V66.378z M82.674,46.007   l-1.846-2.377h3.696L82.674,46.007z M79.176,25.463c0.284-0.092,0.543-0.233,0.771-0.416h5.211c0.277,0.288,0.621,0.501,1.009,0.63   v0.899h-0.921H80.1h-0.924V25.463z M33.203,25.048h-2.566l2.566-12.771V25.048z M34.73,12.279l2.563,12.769H34.73V12.279z    M48.929,18.43l9.087,6.673H39.833L48.929,18.43z M51.258,18.246h18.046l-9.025,6.625L51.258,18.246z M71.634,18.43l4.71,3.458   c-0.234,0.373-0.376,0.812-0.376,1.281c0,0.793,0.392,1.49,0.985,1.934H62.541L71.634,18.43z M78.416,22.268   c0.509,0,0.922,0.403,0.922,0.901c0,0.497-0.413,0.901-0.922,0.901s-0.922-0.404-0.922-0.901   C77.494,22.671,77.907,22.268,78.416,22.268z M86.93,24.284c-0.508,0-0.92-0.403-0.92-0.901s0.412-0.9,0.92-0.9   c0.509,0,0.922,0.402,0.922,0.9S87.438,24.284,86.93,24.284z M97.995,25.103h-9.341c0.445-0.44,0.725-1.049,0.725-1.72   c0-0.389-0.101-0.749-0.264-1.074l4.99-3.663L97.995,25.103z M88.021,21.221c-0.33-0.164-0.696-0.265-1.091-0.265   c-1.349,0-2.445,1.089-2.445,2.427c0,0.047,0.011,0.092,0.013,0.137h-3.669c0.017-0.115,0.036-0.229,0.036-0.351   c0-1.339-1.099-2.428-2.448-2.428c-0.297,0-0.577,0.061-0.841,0.158l-3.613-2.653H92.07L88.021,21.221z M48.612,16.72l-9.957,7.355   L34.933,5.539c4.365,1.388,20.162,6.837,32.647,11.181 M8.52,25.049c-3.058,0.002-5.636,0.007-6.992,0.009v-1.53H8.52V25.049z    M17.037,25.043c-2.335,0.001-4.751,0.003-6.991,0.004v-1.52h6.991V25.043z M18.563,25.043V22h-8.517H8.52H3.217   c6.2-3.167,24.045-12.874,29.68-15.945L29.08,25.058C28.364,25.043,23.826,25.04,18.563,25.043z M36.354,44.01l-5.884,5.754V44.01   H36.354z M36.354,52.34l-5.884,5.753V52.34H36.354z M36.354,60.67l-5.884,5.75v-5.75H36.354z M36.354,68.998L30.47,74.75v-5.752   H36.354z M30.47,77.326h5.884L30.47,83.08V77.326z M36.699,94.779h-5.467v-1.418h5.467V94.779z M37.462,84.13h-5.884l5.884-5.753   V84.13z M37.462,75.801h-5.884l5.884-5.752V75.801z M37.462,67.471h-5.884l5.884-5.751V67.471z M37.462,59.145h-5.884l5.884-5.755   V59.145z M37.462,50.812h-5.884l5.884-5.753V50.812z M30.47,28.107v-1.533h6.992v1.533H30.47z M85.246,28.104v13.671H80.1V28.104   H85.246z" id="svg_2" fill-opacity="1"/><rect x="74.2770004272461" y="66.37799835205078" fill="#ffffff" width="3.052999973297119" height="1.5269999504089355" id="svg_3" fill-opacity="1"/><rect x="78.85800170898438" y="66.37799835205078" fill="#ffffff" width="3.052999973297119" height="1.5269999504089355" id="svg_4" fill-opacity="1"/><rect x="83.43800354003906" y="66.37799835205078" fill="#ffffff" width="3.052000045776367" height="1.5269999504089355" id="svg_5" fill-opacity="1"/><rect x="88.01499938964844" y="66.37799835205078" fill="#ffffff" width="3.052999973297119" height="1.5269999504089355" id="svg_6" fill-opacity="1"/><rect x="74.2770004272461" y="72.49700164794922" fill="#ffffff" width="3.052999973297119" height="1.5269999504089355" id="svg_7" fill-opacity="1"/><rect x="78.85800170898438" y="72.49700164794922" fill="#ffffff" width="3.052999973297119" height="1.5269999504089355" id="svg_8" fill-opacity="1"/><rect x="83.43800354003906" y="72.49700164794922" fill="#ffffff" width="3.052000045776367" height="1.5269999504089355" id="svg_9" fill-opacity="1"/><rect x="88.01499938964844" y="72.49700164794922" fill="#ffffff" width="3.052999973297119" height="1.5269999504089355" id="svg_10" fill-opacity="1"/><rect x="74.2770004272461" y="75.5510025024414" fill="#ffffff" width="3.052999973297119" height="1.524999976158142" id="svg_11" fill-opacity="1"/><rect x="78.85800170898438" y="75.5510025024414" fill="#ffffff" width="3.052999973297119" height="1.524999976158142" id="svg_12" fill-opacity="1"/><rect x="83.43800354003906" y="75.5510025024414" fill="#ffffff" width="3.052000045776367" height="1.524999976158142" id="svg_13" fill-opacity="1"/><rect x="88.01499938964844" y="75.5510025024414" fill="#ffffff" width="3.052999973297119" height="1.524999976158142" id="svg_14" fill-opacity="1"/><rect x="74.2770004272461" y="69.44599914550781" fill="#ffffff" width="3.052999973297119" height="1.524999976158142" id="svg_15" fill-opacity="1"/><rect x="78.85800170898438" y="69.44599914550781" fill="#ffffff" width="3.052999973297119" height="1.524999976158142" id="svg_16" fill-opacity="1"/><rect x="83.43800354003906" y="69.44599914550781" fill="#ffffff" width="3.052000045776367" height="1.524999976158142" id="svg_17" fill-opacity="1"/><rect x="88.01499938964844" y="69.44599914550781" fill="#ffffff" width="3.052999973297119" height="1.524999976158142" id="svg_18" fill-opacity="1"/></g></g></svg>